<svg width="90" height="45" viewBox="0 0 90 45" fill="none" xmlns="http://www.w3.org/2000/svg">
<path d="M69.6 42.0689C66.855 42.0689 65.2297 40.6612 65.1277 38.6774H67.704C67.704 39.2939 68.0977 40.2119 69.7575 40.2374C70.8675 40.2374 71.3925 39.5864 71.3925 39.0951C71.3175 38.3189 70.3402 38.2499 69.2925 38.0849C68.2545 37.9222 67.3725 37.7272 66.7215 37.4099C65.8965 36.9869 65.3475 36.0689 65.3475 35.0309C65.3475 33.2729 66.8835 31.8637 69.4297 31.8637C71.9062 31.8637 73.4707 33.1724 73.6335 35.0887H71.157C71.1217 34.5667 71.025 33.7522 69.5557 33.7522C68.5762 33.7522 67.9297 33.9494 67.8637 34.6312C67.8637 35.6399 69.9142 35.5784 71.5125 35.9984C73.044 36.3854 74.025 37.3484 74.025 38.6782C74.025 41.1202 72.0345 42.0689 69.6 42.0689ZM22.2435 25.7024L30.8212 20.7749L35.3512 28.6049H23.901L22.236 25.7024M38.9985 31.9537H41.4472V41.8349H38.9985V31.9537ZM18.324 36.9449C18.324 38.4794 19.6237 39.7469 21.159 39.7469C22.7227 39.7469 24.03 38.4719 24.03 36.9449C24.03 35.4179 22.7235 34.1084 21.159 34.1084C20.4104 34.12 19.6958 34.4226 19.1666 34.9521C18.6374 35.4816 18.3352 36.1964 18.324 36.9449ZM21.0952 42.0697C18.2902 42.0697 15.9757 39.7469 15.9757 36.9449C15.9757 34.1084 18.2895 31.8562 21.0952 31.8562C22.1707 31.8562 23.1832 32.1502 24.0307 32.7382V31.9559H26.4457V41.8394H24.0307V41.1749C23.2057 41.7299 22.2007 42.0614 21.0952 42.0614" fill="white"/>
<path d="M54.0299 28.5975L42.1049 7.89751L50.6834 2.94751L65.5214 28.6125H54.0299M29.6384 36.9375C29.6384 38.472 30.9404 39.7395 32.5094 39.7395C34.0409 39.7395 35.3444 38.4645 35.3444 36.9375C35.3444 35.4105 34.0424 34.101 32.5094 34.101C30.9344 34.101 29.6384 35.403 29.6384 36.9375ZM32.4449 42.0623C29.6047 42.0623 27.2939 39.7395 27.2939 36.9375C27.2939 34.101 29.6039 31.8488 32.4449 31.8488C33.5204 31.8488 34.5014 32.1428 35.3437 32.7308V28.5908H37.7887V41.8335H35.3437V41.175C34.5007 41.73 33.5212 42.0623 32.4449 42.0623ZM32.2462 16.8878L40.8584 11.9678L50.4779 28.5975H41.4427V31.047H38.9977V28.5975L32.2462 16.8878ZM56.0864 36.945C56.0864 38.4795 57.3929 39.747 58.9364 39.747C59.6776 39.7415 60.3868 39.4444 60.9106 38.9201C61.4344 38.3957 61.7307 37.6862 61.7355 36.945C61.7355 35.4105 60.4664 34.1085 58.9364 34.1085C57.4012 34.1085 56.0864 35.4105 56.0864 36.945ZM58.8277 42.0698C57.4722 42.0593 56.1752 41.5159 55.2171 40.557C54.2589 39.598 53.7167 38.3006 53.7074 36.945C53.7074 34.1085 56.0324 31.8563 58.8277 31.8563C59.9032 31.8563 60.9127 32.1503 61.7264 32.7383V31.956H64.1774V41.8395H61.7264V41.175C60.9127 41.73 59.9377 42.0615 58.8277 42.0615M44.8012 36.942C44.8126 37.6828 45.1121 38.3901 45.6361 38.9139C46.1602 39.4376 46.8676 39.7367 47.6084 39.7478C49.1722 39.7478 50.4779 38.4788 50.4779 36.9428C50.4779 35.4113 49.1729 34.11 47.6084 34.11C46.1084 34.11 44.8012 35.4105 44.8012 36.942ZM50.4787 28.599H52.8922V41.8365H50.4787V41.1855C49.6657 41.7383 48.6547 42.0705 47.5417 42.0705C44.7367 42.0705 42.4214 39.7493 42.4214 36.9435C42.4214 34.1108 44.7367 31.8585 47.5417 31.8585C48.6547 31.8585 49.6304 32.1585 50.4787 32.7405V28.599Z" fill="white"/>
</svg>
