<svg width="57" height="54" viewBox="0 0 57 54" fill="none" xmlns="http://www.w3.org/2000/svg">
<path d="M30.9639 3.68058C30.9419 3.56066 30.927 3.43953 30.919 3.31782C30.8022 1.60943 32.0684 0.128002 33.7503 0.00764483C35.4341 -0.111506 36.8923 1.17624 37.0098 2.88463C37.1274 4.59303 35.8606 6.07446 34.1788 6.19481C34.0724 6.20301 33.9669 6.20446 33.8638 6.20036C33.7957 6.21821 33.7548 6.22665 33.6962 6.27923C33.5231 6.55323 34.1365 6.5021 33.7195 7.69964C33.7195 7.69964 33.7166 7.83109 33.6703 7.96254C33.6375 8.42226 33.4634 9.78454 33.4385 10.5101C33.5271 10.6152 33.552 10.6664 33.5423 10.9213C33.5029 11.266 33.425 12.1106 33.2998 12.6519C33.1937 13.1157 33.0072 13.2042 32.8569 13.3178C32.6455 14.2787 32.5897 15.0747 32.0475 16.2418C31.9984 17.1266 31.9371 17.3675 31.7545 17.7995C31.7341 19.1022 31.8226 19.2961 30.9572 21.3588C30.7338 22.3236 30.9463 22.991 31.1821 23.9934C31.4234 25.0236 32.0927 25.4541 32.1922 26.5091C32.4266 28.9937 32.3679 30.6852 31.8431 32.6333L32.3012 33.7351C32.8697 33.9999 34.2804 34.724 33.4981 35.8702C34.5998 36.4582 36.2639 37.0827 37.6366 38.2751C38.1887 38.7421 38.772 39.2512 39.2954 39.8489C40.2919 40.0067 40.1855 40.087 40.9241 40.5479C43.0959 41.9003 46.5787 44.5831 48.5976 46.4826C48.9452 46.6888 49.087 46.8374 49.3677 46.9869C49.4117 47.0723 49.4235 47.0921 49.4138 47.1152C49.3174 47.3632 49.3209 47.3704 49.2338 47.5679C49.3428 47.6902 49.5458 47.8046 49.6672 47.9116C49.7807 47.9476 49.7807 47.8923 49.9755 47.8439C50.2289 48.0848 50.5428 48.279 50.6554 48.2676C50.999 48.1791 50.9404 48.2512 51.2308 47.9213C51.3353 47.812 51.5103 47.9227 51.5103 47.9227C51.6193 47.7927 51.8537 47.5337 52.1663 47.3465C52.4156 47.1972 52.8916 47.1806 52.8916 47.1806C53.0509 47.182 53.021 47.348 53.0072 47.402C52.8272 47.4963 52.4458 47.6 52.2316 47.7604C51.7652 48.2503 51.3999 48.9112 51.3999 48.9112C52.3389 48.7809 52.9158 49.0175 53.6983 48.9264C54.1251 48.9013 54.44 48.9292 54.8881 48.5998C54.8881 48.5998 55.3189 48.2884 55.7048 48.1232C56.0796 47.9572 56.4353 48.0457 56.7652 48.2891C56.9982 48.5561 57.1386 48.5576 56.7842 48.9346C56.6562 49.081 56.4707 49.2445 56.2351 49.4813C55.8207 49.8972 55.2629 50.4514 54.6853 50.9102C54.1004 51.374 53.4366 51.7906 53.0222 51.9816C51.9768 52.7445 52.2235 52.545 51.4016 53.3012C51.2978 53.3955 51.0225 53.5641 50.8891 53.654C50.5649 53.8702 50.4637 53.69 50.2524 53.2942C50.2524 53.2942 50.1557 53.1463 49.9961 52.8304C49.8218 52.4857 49.691 52.0916 49.7439 52.0981C49.5492 52.073 48.6724 51.0291 48.6702 50.8053C48.4848 50.7621 47.6939 49.9845 47.6657 49.8359L46.9651 49.2655C46.1635 49.4346 45.9797 48.929 43.8628 47.4034C43.6212 47.3991 43.2482 47.2667 42.7133 46.8639C41.7582 46.0868 39.4664 44.3287 39.0779 44.1278C38.6606 43.9119 38.1621 43.7086 37.8562 43.4522C37.3981 43.3665 37.1476 43.3178 36.9184 43.2529C36.6842 43.1878 36.4712 43.1036 35.8784 43.0231C34.9135 42.9013 33.9128 42.4956 32.96 42.0113C32.509 41.7942 32.1162 41.6835 31.7279 41.5139C30.8568 41.1403 30.1099 40.8038 29.5311 40.668C29.3103 40.6458 28.2606 40.326 27.7101 39.9997C27.5191 39.8998 27.4087 39.8043 27.2833 39.7751C26.9943 39.7076 26.8088 39.8236 26.6782 39.8682C25.9721 40.2418 25.311 40.5646 24.7002 40.8984C24.1316 41.2071 23.6082 41.5279 23.0534 41.8523C22.553 42.1458 21.975 42.4225 21.3808 42.7107C21.3808 42.7107 19.6863 43.5732 18.7608 43.9085C17.9579 44.5742 16.3166 45.7259 15.3149 46.2964C14.8188 46.5359 13.8551 47.156 13.4105 47.2947C13.1569 47.5021 12.2532 48.1569 11.5457 48.697C10.999 49.1123 10.5861 49.4625 10.5861 49.4625C10.2685 49.7517 10.2901 49.889 9.68645 49.6285C9.51879 49.7684 9.38936 49.8554 9.28154 49.9358C8.84551 50.257 8.80846 50.1796 8.64911 50.1712C8.34513 50.4384 8.30689 50.3002 8.04114 50.6077C7.86659 50.8822 8.04518 50.8166 7.67707 50.9498C7.59942 50.9801 7.56261 51.0754 7.50276 51.1282C7.20685 51.3757 7.20566 52.0752 6.49676 52.1251C6.08638 52.4225 6.19135 52.7816 5.87787 52.766C5.89711 53.0745 5.3231 53.5248 5.21956 53.5233C4.31568 53.84 4.25298 53.1651 3.1679 53.6688C3.02755 53.7341 2.82165 53.9143 2.55044 53.9664C2.07332 54.0578 1.4967 53.9621 1.14499 53.6854C0.591403 53.252 0.0817556 52.4157 0.0817556 52.4157C-0.0942224 51.9934 0.00813454 51.7264 0.557443 51.3272C0.78638 51.1794 0.828653 51.0687 1.21315 51.0419C1.40408 50.9686 1.35207 51.0807 1.69311 50.9565C1.8907 50.8844 1.8907 50.9358 2.28872 50.9013C2.37992 50.8388 2.50816 50.8166 2.67987 50.7599C2.99477 50.6545 3.30161 50.5371 3.30161 50.5371C3.30161 50.5371 3.38188 50.4553 3.68468 50.4845C3.94092 50.3779 4.20406 50.2197 4.33895 50.1712C4.30475 49.759 4.34845 49.7783 4.53654 49.6123C4.77094 49.4071 4.81321 49.4406 4.98777 49.5677C5.06139 49.5245 5.09677 49.5098 5.0887 49.4471C5.05996 49.2324 4.87876 49.1314 4.93338 48.6581C4.85287 48.4686 4.73437 48.2346 4.76026 48.0933C4.79849 47.9408 4.8353 47.8673 4.9265 47.8188C5.02339 47.7664 5.05474 47.8371 5.10651 47.8962C5.19913 48.0057 5.27418 48.3299 5.27418 48.3299C5.30695 48.6955 5.41857 49.169 5.77433 48.9018C5.98426 48.6856 6.02511 48.1099 6.45306 48.2332L6.75847 48.5028C7.01757 48.2553 7.02992 48.2553 7.18524 48.1557C7.18524 48.1557 6.94253 47.9066 7.15531 47.7127C7.30113 47.581 7.47687 47.4867 7.78917 47.1352C8.6465 46.1731 9.0868 45.7479 10.0139 44.9724C11.8637 43.4273 13.9684 42.3436 15.3056 41.8048C15.7417 41.2426 16.1658 40.869 17.1336 40.7746C18.284 38.8017 20.4869 37.0397 20.9927 36.7587C21.4043 36.0011 21.5829 36.0817 22.1213 35.9295C22.5478 35.5822 22.6447 35.5822 22.8357 35.2194C23.0211 34.4707 22.4077 32.47 23.9737 32.369C24.3064 31.8916 24.2233 32.0062 24.594 31.5549C24.3432 30.9264 24.2397 30.4006 24.1715 29.9476C24.1592 29.895 23.55 29.4589 23.7229 28.8897C23.464 28.5769 22.98 27.8468 22.8288 27.5047C22.7594 27.5062 22.7019 27.4797 22.6257 27.469C22.5466 27.4563 22.4483 27.4609 22.3381 27.4512C22.0942 28.0904 21.8285 28.1379 21.3948 28.279C20.6206 29.9548 20.348 30.6642 18.1574 32.0496C17.2877 33.0385 17.0096 34.1403 17.0136 34.1239C16.8638 34.4505 16.9168 34.9075 16.9958 35.1526C16.8814 35.5154 16.9113 35.5513 16.9113 35.5513C16.959 35.6883 17.0832 35.8697 17.2357 35.9083C17.4988 35.9789 17.762 35.9676 17.7468 36.2652C17.7114 36.6376 17.2302 36.5766 17.0025 36.5351C16.1259 36.3938 16.4028 35.8137 15.8424 36.0074C15.413 36.2927 15.2522 37.1345 14.5514 37.0252C14.4588 36.963 14.4873 36.779 14.55 36.6461C14.6483 36.4384 14.8226 36.2667 14.719 36.1888C14.2621 36.3374 13.8058 36.4884 13.3504 36.6417C12.921 36.7607 12.4506 36.5433 12.8733 36.2566C13.0697 36.1791 13.3504 36.0819 13.6967 35.8567C13.6967 35.8567 13.875 35.6102 13.533 35.7334C13.1595 35.869 12.6087 35.9534 12.2136 35.9092C12.2136 35.9092 11.3942 35.8 11.2893 35.7346C11.1829 35.6692 11.0862 35.4121 11.3425 35.4136C11.6669 35.4165 12.4793 35.3193 13.1091 35.149C13.4131 35.0286 13.9911 34.6813 14.3156 34.5178C14.3156 34.5178 14.6673 33.9973 14.8608 33.8948C15.1838 33.517 15.4564 33.2939 15.7426 32.9075C16.0221 32.3217 16.3112 31.3945 17.2366 29.9587C17.6646 29.2968 18.1963 28.526 18.8656 27.8366C18.8656 27.8366 19.0387 26.7334 19.9098 25.9483C20.1022 25.4886 20.3938 24.9473 20.6814 24.4461C20.7933 24.2537 20.8994 24.0863 21.0058 23.9034C21.2758 23.4729 21.5594 22.6714 22.6117 22.5453C22.6117 22.5453 23.0615 22.2076 23.2346 21.9676C23.5047 21.7336 23.4431 21.3697 23.6626 21.1133C23.3272 20.7812 22.4699 20.1567 22.3866 19.2886C22.298 18.368 22.621 17.6106 23.1691 17.0501C23.777 16.4326 24.4178 16.1239 25.196 16.1709C26.1678 16.3176 26.3519 16.6444 26.6613 16.9683C26.9584 17.2756 27.0689 17.0778 27.1943 17.4377C28.0095 17.6579 27.9644 17.5609 27.9575 18.1702C28.0829 18.3417 28.2929 18.5011 28.29 18.8569C28.5641 18.2795 28.6185 18.1731 29.3506 17.5376C29.5238 17.0212 29.6413 16.5132 29.7933 15.9968C29.936 15.5192 30.1134 15.0277 30.251 14.6579C30.1051 13.614 30.4046 13.4411 30.8043 12.526C30.7335 12.4001 30.7487 12.3641 30.7786 12.1577C30.934 11.5527 31.1767 10.7525 31.3211 10.2305C31.3211 10.2305 31.3688 10.0228 31.5802 10.0076C31.763 9.34725 32.0371 8.11787 32.0832 7.86727C32.2713 7.17648 32.1499 6.95482 32.0055 6.56577C31.9592 6.43842 31.9808 6.25704 31.9008 6.1157C31.673 5.7129 31.4279 5.18951 31.2617 4.81565C31.1539 4.57759 30.9834 3.68034 30.9834 3.68034C30.8371 3.22231 30.9639 3.68058 30.9639 3.68058Z" fill="white"/>
</svg>
