<svg width="57" height="57" viewBox="0 0 57 57" fill="none" xmlns="http://www.w3.org/2000/svg">
<g clip-path="url(#clip0_61_101)">
<path d="M28.9013 24.4768L31.54 19.8764L40.5032 19.3017L40.8167 18.7412L32.5327 18.1664L34.4802 14.8082H49.8465C54.5727 14.8082 58.064 16.5063 56.7031 21.4582C56.2993 22.9734 54.378 26.7616 48.7326 28.3433C49.9367 28.4858 52.9126 29.8063 52.3901 33.2287C51.4781 39.3039 43.6263 42.1919 39.2492 42.1919L21.1018 42.2062L20.1993 38.6912L29.7112 38.0262L30.0366 37.4633L19.7148 36.8363L18.6057 32.6682L33.2785 31.8061L33.6038 31.2574L7.25084 29.6116L8.51909 27.4147L36.8956 25.5741L37.2233 25.0254L28.9013 24.4768ZM40.7763 25.3912L43.3888 25.3769C45.1416 25.3651 46.9561 24.5694 47.6235 22.9592C48.2386 21.4582 47.4145 20.1781 46.3172 20.1899H43.7831L40.7763 25.3912ZM37.7601 30.6043L34.6108 36.0787H37.6152C39.0141 36.0787 41.5102 35.3852 42.2797 33.3997C42.997 31.5448 41.6788 30.6043 40.7645 30.6043H37.7577H37.7601ZM14.8675 39.0569L13.0387 42.1801L-3.05176e-05 42.2038L1.26822 40.0117L14.8675 39.0569ZM15.7818 14.7939L26.2722 14.8082L27.0702 17.7722L14.5397 16.9884L15.7818 14.7939ZM27.6568 20.1258L28.8063 24.4768L10.8941 23.3012L12.1481 21.1162L27.6568 20.1258ZM18.5368 32.6682L16.264 36.6131L3.62897 35.8958L4.89722 33.7013L18.5368 32.6682Z" fill="white"/>
</g>
<defs>
<clipPath id="clip0_61_101">
<rect width="57" height="57" fill="white"/>
</clipPath>
</defs>
</svg>
