<svg width="28" height="20" viewBox="0 0 28 20" fill="none" xmlns="http://www.w3.org/2000/svg">
<path d="M27.2452 2.87413C26.2685 3.24864 25.2277 3.49689 24.1427 3.61742C25.2589 3.03484 26.1109 2.11935 26.5114 1.01589C25.4707 1.5583 24.3216 1.94142 23.097 2.15523C22.1089 1.23544 20.7004 0.665771 19.164 0.665771C16.183 0.665771 13.7831 2.78086 13.7831 5.37378C13.7831 5.74686 13.8192 6.10559 13.9079 6.4471C9.43146 6.25626 5.47049 4.3808 2.8096 1.52386C2.34505 2.22841 2.07256 3.03484 2.07256 3.90297C2.07256 5.53305 3.03285 6.97803 4.46425 7.81459C3.59917 7.80024 2.75051 7.5807 2.03152 7.23488C2.03152 7.24923 2.03152 7.26788 2.03152 7.28654C2.03152 9.57381 3.89792 11.4737 6.34542 11.9113C5.90714 12.0161 5.42946 12.0663 4.93372 12.0663C4.589 12.0663 4.241 12.0491 3.91434 11.9859C4.61198 13.8499 6.59165 15.2203 8.94557 15.2647C7.11365 16.5174 4.78762 17.2722 2.26954 17.2722C1.82798 17.2722 1.40447 17.255 0.980957 17.2076C3.36607 18.5522 6.19276 19.3199 9.24105 19.3199C19.1492 19.3199 24.5662 12.1452 24.5662 5.92622C24.5662 5.71816 24.558 5.51727 24.5465 5.31781C25.6151 4.65488 26.513 3.82692 27.2452 2.87413Z" fill="white"/>
</svg>
