<svg width="27" height="20" viewBox="0 0 27 20" fill="none" xmlns="http://www.w3.org/2000/svg">
<g filter="url(#filter0_d_318_297)">
<path fill-rule="evenodd" clip-rule="evenodd" d="M11.4184 0.665771H19.4767C23.1849 0.665771 26.192 3.29443 26.192 6.53594V13.5801C26.192 16.8216 23.1849 19.4503 19.4767 19.4503H11.4184C7.71023 19.4503 4.70312 16.8216 4.70312 13.5801V6.53594C4.70312 3.29443 7.71023 0.665771 11.4184 0.665771ZM19.4767 17.6893C22.0688 17.6893 24.1774 15.846 24.1774 13.5801V6.53594C24.1774 4.27005 22.0688 2.42682 19.4767 2.42682H11.4184C8.82631 2.42682 6.71771 4.27005 6.71771 6.53594V13.5801C6.71771 15.846 8.82631 17.6893 11.4184 17.6893H19.4767Z" fill="white"/>
<path fill-rule="evenodd" clip-rule="evenodd" d="M10.0752 10.0581C10.0752 7.46463 12.4806 5.36194 15.4474 5.36194C18.4142 5.36194 20.8196 7.46463 20.8196 10.0581C20.8196 12.6515 18.4142 14.7542 15.4474 14.7542C12.4806 14.7542 10.0752 12.6515 10.0752 10.0581ZM12.0898 10.0581C12.0898 11.6759 13.5967 12.9932 15.4474 12.9932C17.2981 12.9932 18.8051 11.6759 18.8051 10.0581C18.8051 8.43908 17.2981 7.12299 15.4474 7.12299C13.5967 7.12299 12.0898 8.43908 12.0898 10.0581Z" fill="white"/>
<ellipse cx="21.2227" cy="5.00967" rx="0.715849" ry="0.62576" fill="white"/>
</g>
<defs>
<filter id="filter0_d_318_297" x="0.703125" y="0.665771" width="29.4888" height="26.7845" filterUnits="userSpaceOnUse" color-interpolation-filters="sRGB">
<feFlood flood-opacity="0" result="BackgroundImageFix"/>
<feColorMatrix in="SourceAlpha" type="matrix" values="0 0 0 0 0 0 0 0 0 0 0 0 0 0 0 0 0 0 127 0" result="hardAlpha"/>
<feOffset dy="4"/>
<feGaussianBlur stdDeviation="2"/>
<feComposite in2="hardAlpha" operator="out"/>
<feColorMatrix type="matrix" values="0 0 0 0 0 0 0 0 0 0 0 0 0 0 0 0 0 0 0.25 0"/>
<feBlend mode="normal" in2="BackgroundImageFix" result="effect1_dropShadow_318_297"/>
<feBlend mode="normal" in="SourceGraphic" in2="effect1_dropShadow_318_297" result="shape"/>
</filter>
</defs>
</svg>
