<svg width="26" height="30" viewBox="0 0 26 30" fill="none" xmlns="http://www.w3.org/2000/svg">
<path d="M25.15 21.1409V21.1376C25.151 20.8652 25.0972 20.5947 24.9912 20.3415C24.8852 20.0883 24.7287 19.8569 24.5299 19.6608C24.331 19.4647 24.0936 19.3079 23.8308 19.2003C23.5684 19.0928 23.2864 19.0366 23.0009 19.0354L25.15 21.1409ZM25.15 21.1409V23.1039C25.15 24.6282 24.0818 26.1216 21.9008 27.2804C19.7375 28.4299 16.6332 29.15 13 29.15C9.36695 29.15 6.26263 28.429 4.0992 27.2795C1.91761 26.1204 0.850021 24.6278 0.850021 23.1075L0.850027 21.1409L0.850015 21.1376C0.848982 20.8649 0.902859 20.5943 1.00904 20.3409C1.11524 20.0876 1.27193 19.856 1.47105 19.6599C1.67022 19.4638 1.90792 19.307 2.17103 19.1995C2.43395 19.0921 2.71652 19.0362 3.00246 19.0354L25.15 21.1409ZM26 21.1409V23.1039C26 27.0482 20.4657 30 13 30C5.5343 30 2.06702e-05 27.0445 2.06702e-05 23.1075V21.1409C-0.00144499 20.7539 0.0750474 20.3704 0.225121 20.0124C0.375195 19.6543 0.595905 19.3288 0.874636 19.0543C1.15337 18.7798 1.48465 18.5618 1.84953 18.4127C2.21442 18.2636 2.60575 18.1864 3.00116 18.1854L26 21.1409ZM19.5786 7.26936C19.5792 8.11042 19.4106 8.94382 19.0819 9.72213C18.7532 10.5005 18.2706 11.209 17.6606 11.8069C17.0507 12.4048 16.3254 12.8801 15.5257 13.205C14.726 13.5299 13.8681 13.6977 13.0012 13.6983C12.1343 13.699 11.2762 13.5324 10.476 13.2087C9.67581 12.885 8.94979 12.4107 8.3389 11.8137C7.72806 11.2168 7.24433 10.5089 6.91442 9.73102C6.58453 8.95318 6.41466 8.12003 6.41401 7.27896C6.41271 5.58114 7.10041 3.94856 8.33193 2.74143C9.56408 1.53369 11.2398 0.851287 12.9913 0.850002C14.7429 0.848717 16.4197 1.52866 17.6537 2.73461C18.8871 3.93995 19.5773 5.57153 19.5786 7.26936Z" stroke="white" stroke-width="1.7"/>
</svg>
