<svg width="171" height="69" viewBox="0 0 171 69" fill="none" xmlns="http://www.w3.org/2000/svg">
<path d="M10.2374 43.24C8.92544 43.24 7.66944 43.056 6.46944 42.688C5.26944 42.304 4.31744 41.816 3.61344 41.224L4.69344 38.8C5.36544 39.328 6.19744 39.768 7.18944 40.12C8.18144 40.472 9.19744 40.648 10.2374 40.648C11.1174 40.648 11.8294 40.552 12.3734 40.36C12.9174 40.168 13.3174 39.912 13.5734 39.592C13.8294 39.256 13.9574 38.88 13.9574 38.464C13.9574 37.952 13.7734 37.544 13.4054 37.24C13.0374 36.92 12.5574 36.672 11.9654 36.496C11.3894 36.304 10.7414 36.128 10.0214 35.968C9.31744 35.808 8.60544 35.624 7.88544 35.416C7.18144 35.192 6.53344 34.912 5.94144 34.576C5.36544 34.224 4.89344 33.76 4.52544 33.184C4.15744 32.608 3.97344 31.872 3.97344 30.976C3.97344 30.064 4.21344 29.232 4.69344 28.48C5.18944 27.712 5.93344 27.104 6.92544 26.656C7.93344 26.192 9.20544 25.96 10.7414 25.96C11.7494 25.96 12.7494 26.088 13.7414 26.344C14.7334 26.6 15.5974 26.968 16.3334 27.448L15.3494 29.872C14.5974 29.424 13.8214 29.096 13.0214 28.888C12.2214 28.664 11.4534 28.552 10.7174 28.552C9.85344 28.552 9.14944 28.656 8.60544 28.864C8.07744 29.072 7.68544 29.344 7.42944 29.68C7.18944 30.016 7.06944 30.4 7.06944 30.832C7.06944 31.344 7.24544 31.76 7.59744 32.08C7.96544 32.384 8.43744 32.624 9.01344 32.8C9.60544 32.976 10.2614 33.152 10.9814 33.328C11.7014 33.488 12.4134 33.672 13.1174 33.88C13.8374 34.088 14.4854 34.36 15.0614 34.696C15.6534 35.032 16.1254 35.488 16.4774 36.064C16.8454 36.64 17.0294 37.368 17.0294 38.248C17.0294 39.144 16.7814 39.976 16.2854 40.744C15.8054 41.496 15.0614 42.104 14.0534 42.568C13.0454 43.016 11.7734 43.24 10.2374 43.24ZM27.1072 30.04C28.1312 30.04 29.0432 30.24 29.8432 30.64C30.6592 31.04 31.2992 31.656 31.7632 32.488C32.2272 33.304 32.4592 34.36 32.4592 35.656V43H29.4592V36.04C29.4592 34.904 29.1872 34.056 28.6432 33.496C28.1152 32.936 27.3712 32.656 26.4112 32.656C25.7072 32.656 25.0832 32.8 24.5392 33.088C23.9952 33.376 23.5712 33.808 23.2672 34.384C22.9792 34.944 22.8352 35.656 22.8352 36.52V43H19.8352V30.184H22.6912V33.64L22.1872 32.584C22.6352 31.768 23.2832 31.144 24.1312 30.712C24.9952 30.264 25.9872 30.04 27.1072 30.04ZM42.3123 43.168C40.8883 43.168 39.6403 42.888 38.5683 42.328C37.5123 41.752 36.6883 40.968 36.0963 39.976C35.5203 38.984 35.2323 37.856 35.2323 36.592C35.2323 35.312 35.5123 34.184 36.0723 33.208C36.6483 32.216 37.4323 31.44 38.4243 30.88C39.4323 30.32 40.5763 30.04 41.8563 30.04C43.1043 30.04 44.2163 30.312 45.1923 30.856C46.1683 31.4 46.9363 32.168 47.4963 33.16C48.0563 34.152 48.3363 35.32 48.3363 36.664C48.3363 36.792 48.3283 36.936 48.3123 37.096C48.3123 37.256 48.3043 37.408 48.2883 37.552H37.6083V35.56H46.7043L45.5283 36.184C45.5443 35.448 45.3923 34.8 45.0723 34.24C44.7523 33.68 44.3123 33.24 43.7523 32.92C43.2083 32.6 42.5763 32.44 41.8563 32.44C41.1203 32.44 40.4723 32.6 39.9123 32.92C39.3683 33.24 38.9363 33.688 38.6163 34.264C38.3123 34.824 38.1603 35.488 38.1603 36.256V36.736C38.1603 37.504 38.3363 38.184 38.6883 38.776C39.0403 39.368 39.5363 39.824 40.1763 40.144C40.8163 40.464 41.5523 40.624 42.3843 40.624C43.1043 40.624 43.7523 40.512 44.3283 40.288C44.9043 40.064 45.4163 39.712 45.8643 39.232L47.4723 41.08C46.8963 41.752 46.1683 42.272 45.2883 42.64C44.4243 42.992 43.4323 43.168 42.3123 43.168ZM58.7624 43V40.408L58.5944 39.856V35.32C58.5944 34.44 58.3304 33.76 57.8024 33.28C57.2744 32.784 56.4744 32.536 55.4024 32.536C54.6824 32.536 53.9704 32.648 53.2664 32.872C52.5784 33.096 51.9944 33.408 51.5144 33.808L50.3384 31.624C51.0264 31.096 51.8424 30.704 52.7864 30.448C53.7464 30.176 54.7384 30.04 55.7624 30.04C57.6184 30.04 59.0504 30.488 60.0584 31.384C61.0824 32.264 61.5944 33.632 61.5944 35.488V43H58.7624ZM54.7304 43.168C53.7704 43.168 52.9304 43.008 52.2104 42.688C51.4904 42.352 50.9304 41.896 50.5304 41.32C50.1464 40.728 49.9544 40.064 49.9544 39.328C49.9544 38.608 50.1224 37.96 50.4584 37.384C50.8104 36.808 51.3784 36.352 52.1624 36.016C52.9464 35.68 53.9864 35.512 55.2824 35.512H59.0024V37.504H55.4984C54.4744 37.504 53.7864 37.672 53.4344 38.008C53.0824 38.328 52.9064 38.728 52.9064 39.208C52.9064 39.752 53.1224 40.184 53.5544 40.504C53.9864 40.824 54.5864 40.984 55.3544 40.984C56.0904 40.984 56.7464 40.816 57.3224 40.48C57.9144 40.144 58.3384 39.648 58.5944 38.992L59.0984 40.792C58.8104 41.544 58.2904 42.128 57.5384 42.544C56.8024 42.96 55.8664 43.168 54.7304 43.168ZM67.8926 40.144L67.9646 36.376L74.6606 30.184H78.2606L72.5726 35.896L70.9886 37.216L67.8926 40.144ZM65.4446 43V25.192H68.4446V43H65.4446ZM75.1166 43L70.4366 37.216L72.3326 34.816L78.7646 43H75.1166ZM86.2108 43.168C84.7868 43.168 83.5388 42.888 82.4668 42.328C81.4108 41.752 80.5868 40.968 79.9948 39.976C79.4188 38.984 79.1308 37.856 79.1308 36.592C79.1308 35.312 79.4108 34.184 79.9708 33.208C80.5468 32.216 81.3308 31.44 82.3228 30.88C83.3308 30.32 84.4748 30.04 85.7548 30.04C87.0028 30.04 88.1148 30.312 89.0908 30.856C90.0668 31.4 90.8348 32.168 91.3948 33.16C91.9548 34.152 92.2348 35.32 92.2348 36.664C92.2348 36.792 92.2268 36.936 92.2108 37.096C92.2108 37.256 92.2028 37.408 92.1868 37.552H81.5068V35.56H90.6028L89.4268 36.184C89.4428 35.448 89.2908 34.8 88.9708 34.24C88.6508 33.68 88.2108 33.24 87.6508 32.92C87.1068 32.6 86.4748 32.44 85.7548 32.44C85.0188 32.44 84.3708 32.6 83.8108 32.92C83.2668 33.24 82.8348 33.688 82.5148 34.264C82.2108 34.824 82.0588 35.488 82.0588 36.256V36.736C82.0588 37.504 82.2348 38.184 82.5868 38.776C82.9388 39.368 83.4348 39.824 84.0748 40.144C84.7148 40.464 85.4508 40.624 86.2828 40.624C87.0028 40.624 87.6508 40.512 88.2268 40.288C88.8028 40.064 89.3148 39.712 89.7628 39.232L91.3708 41.08C90.7948 41.752 90.0668 42.272 89.1868 42.64C88.3228 42.992 87.3308 43.168 86.2108 43.168ZM95.1164 43V30.184H97.9724V33.712L97.6364 32.68C98.0204 31.816 98.6204 31.16 99.4364 30.712C100.268 30.264 101.3 30.04 102.532 30.04V32.896C102.404 32.864 102.284 32.848 102.172 32.848C102.06 32.832 101.948 32.824 101.836 32.824C100.7 32.824 99.7964 33.16 99.1244 33.832C98.4524 34.488 98.1164 35.472 98.1164 36.784V43H95.1164Z" fill="white"/>
<path d="M119.021 26.2H122.141V43H119.021V26.2ZM110.333 43H107.213V26.2H110.333V43ZM119.261 35.8H110.069V33.136H119.261V35.8ZM132.379 43.168C130.955 43.168 129.707 42.888 128.635 42.328C127.579 41.752 126.755 40.968 126.163 39.976C125.587 38.984 125.299 37.856 125.299 36.592C125.299 35.312 125.579 34.184 126.139 33.208C126.715 32.216 127.499 31.44 128.491 30.88C129.499 30.32 130.643 30.04 131.923 30.04C133.171 30.04 134.283 30.312 135.259 30.856C136.235 31.4 137.003 32.168 137.563 33.16C138.123 34.152 138.403 35.32 138.403 36.664C138.403 36.792 138.395 36.936 138.379 37.096C138.379 37.256 138.371 37.408 138.355 37.552H127.675V35.56H136.771L135.595 36.184C135.611 35.448 135.459 34.8 135.139 34.24C134.819 33.68 134.379 33.24 133.819 32.92C133.275 32.6 132.643 32.44 131.923 32.44C131.187 32.44 130.539 32.6 129.979 32.92C129.435 33.24 129.003 33.688 128.683 34.264C128.379 34.824 128.227 35.488 128.227 36.256V36.736C128.227 37.504 128.403 38.184 128.755 38.776C129.107 39.368 129.603 39.824 130.243 40.144C130.883 40.464 131.619 40.624 132.451 40.624C133.171 40.624 133.819 40.512 134.395 40.288C134.971 40.064 135.483 39.712 135.931 39.232L137.539 41.08C136.963 41.752 136.235 42.272 135.355 42.64C134.491 42.992 133.499 43.168 132.379 43.168ZM148.829 43V40.408L148.661 39.856V35.32C148.661 34.44 148.397 33.76 147.869 33.28C147.341 32.784 146.541 32.536 145.469 32.536C144.749 32.536 144.037 32.648 143.333 32.872C142.645 33.096 142.061 33.408 141.581 33.808L140.405 31.624C141.093 31.096 141.909 30.704 142.853 30.448C143.813 30.176 144.805 30.04 145.829 30.04C147.685 30.04 149.117 30.488 150.125 31.384C151.149 32.264 151.661 33.632 151.661 35.488V43H148.829ZM144.797 43.168C143.837 43.168 142.997 43.008 142.277 42.688C141.557 42.352 140.997 41.896 140.597 41.32C140.213 40.728 140.021 40.064 140.021 39.328C140.021 38.608 140.189 37.96 140.525 37.384C140.877 36.808 141.445 36.352 142.229 36.016C143.013 35.68 144.053 35.512 145.349 35.512H149.069V37.504H145.565C144.541 37.504 143.853 37.672 143.501 38.008C143.149 38.328 142.973 38.728 142.973 39.208C142.973 39.752 143.189 40.184 143.621 40.504C144.053 40.824 144.653 40.984 145.421 40.984C146.157 40.984 146.813 40.816 147.389 40.48C147.981 40.144 148.405 39.648 148.661 38.992L149.165 40.792C148.877 41.544 148.357 42.128 147.605 42.544C146.869 42.96 145.933 43.168 144.797 43.168ZM160.958 43.168C159.726 43.168 158.614 42.896 157.622 42.352C156.646 41.792 155.878 41.024 155.318 40.048C154.758 39.072 154.478 37.92 154.478 36.592C154.478 35.264 154.758 34.112 155.318 33.136C155.878 32.16 156.646 31.4 157.622 30.856C158.614 30.312 159.726 30.04 160.958 30.04C162.03 30.04 162.99 30.28 163.838 30.76C164.686 31.224 165.358 31.936 165.854 32.896C166.35 33.856 166.598 35.088 166.598 36.592C166.598 38.08 166.358 39.312 165.878 40.288C165.398 41.248 164.734 41.968 163.886 42.448C163.038 42.928 162.062 43.168 160.958 43.168ZM161.318 40.6C162.038 40.6 162.678 40.44 163.238 40.12C163.814 39.8 164.27 39.336 164.606 38.728C164.958 38.12 165.134 37.408 165.134 36.592C165.134 35.76 164.958 35.048 164.606 34.456C164.27 33.848 163.814 33.384 163.238 33.064C162.678 32.744 162.038 32.584 161.318 32.584C160.598 32.584 159.95 32.744 159.374 33.064C158.814 33.384 158.358 33.848 158.006 34.456C157.67 35.048 157.502 35.76 157.502 36.592C157.502 37.408 157.67 38.12 158.006 38.728C158.358 39.336 158.814 39.8 159.374 40.12C159.95 40.44 160.598 40.6 161.318 40.6ZM165.206 43V39.976L165.326 36.568L165.086 33.16V25.192H168.062V43H165.206Z" fill="#DF1832"/>
</svg>
